<svg xmlns="http://www.w3.org/2000/svg" baseProfile="full" version="1.1" width="385px" height="490px" style="fill: none; width: 385px; height: 490px; stroke-width: 30;"><path d="" style="stroke-width: 10; stroke-linecap: round; stroke-linejoin: round; stroke: rgb(255, 255, 255); fill: none;"/><path d="" style="stroke-width: 10; stroke-linecap: square; stroke-linejoin: miter; stroke: rgb(0, 0, 0); fill: none;"/><path d="M65,65 L185,65 A60,60 0 0,1 245,125 A60,60 0 0,1 185,185 L65,185 L65,185 L185,185 A120,120 0 0,1 305,305 A120,120 0 0,1 185,425 L65,425 M65,425 L185,425 A60,60 0 0,0 245,365 A60,60 0 0,0 185,305 L65,305 L65,305 L185,305 A120,120 0 0,0 305,185 A120,120 0 0,0 185,65 L65,65 " style="stroke-width: 30; stroke-linecap: butt; stroke-linejoin: bevel; stroke: rgb(255, 255, 255); fill: none;"/></svg>